# xmcd
#
# Track frame offsets: 
#        150
#        21492
#        42675
#        61170
#        81607
#        105412
#        134995
#        152655
#        177922
#        205162
#        220722
#        243015
#        261782
#
# Disc length: 3935 seconds
#
# Revision: 3
# Processed by: cddbd v1.5.2PL0 Copyright (c) Steve Scherf et al.
# Submitted via: ExactAudioCopy v0.99pb3
#
DISCID=bc0f5d0d
DTITLE=Blues Traveler - Straight On Till Morning
DYEAR=1997
DGENRE=Blues
TTITLE0=Carolina Blues
TTITLE1=Felicia
TTITLE2=Justify The Thrill
TTITLE3=Canadian Rose
TTITLE4=Business As Usual
TTITLE5=Yours
TTITLE6=Psycho Joe
TTITLE7=Great Big World
TTITLE8=Battle Of Someone
TTITLE9=Most Precarious
TTITLE10=The Gunfighter
TTITLE11=Last Night I Dreamed
TTITLE12=Make My Way
EXTD=
EXTT0=
EXTT1=
EXTT2=
EXTT3=
EXTT4=
EXTT5=
EXTT6=
EXTT7=
EXTT8=
EXTT9=
EXTT10=
EXTT11=
EXTT12=
PLAYORDER=
